<?xml version="1.0" encoding="UTF-8"?>
<svg version="1.1" xmlns="http://www.w3.org/2000/svg" width="50" height="50">
<path d="M0 0 C0.70125 0.00515625 1.4025 0.0103125 2.125 0.015625 C2.82625 0.01046875 3.5275 0.0053125 4.25 0 C6.125 0.265625 6.125 0.265625 8.125 2.265625 C8.125 3.255625 8.125 4.245625 8.125 5.265625 C20.665 5.265625 33.205 5.265625 46.125 5.265625 C46.125 17.145625 46.125 29.025625 46.125 41.265625 C39.32551629 41.31146422 32.52656573 41.35131137 25.72705078 41.37548828 C23.41257921 41.38556392 21.09812041 41.39922475 18.78369141 41.41650391 C15.46253307 41.44068365 12.1415426 41.4520923 8.8203125 41.4609375 C7.78069366 41.47126007 6.74107483 41.48158264 5.66995239 41.49221802 C4.70910736 41.49236908 3.74826233 41.49252014 2.75830078 41.49267578 C1.91002716 41.497117 1.06175354 41.50155823 0.18777466 41.50613403 C-1.875 41.265625 -1.875 41.265625 -3.875 39.265625 C-4.07482025 36.49227073 -4.154792 33.82092857 -4.140625 31.046875 C-4.14253845 30.23319458 -4.1444519 29.41951416 -4.14642334 28.58117676 C-4.14778527 26.859616 -4.14408828 25.13804497 -4.13574219 23.41650391 C-4.12504258 20.7761333 -4.135637 18.13644311 -4.1484375 15.49609375 C-4.14711591 13.82551933 -4.14455352 12.15494533 -4.140625 10.484375 C-4.14467346 9.69164185 -4.14872192 8.89890869 -4.15289307 8.08215332 C-4.08846441 0.57919912 -4.08846441 0.57919912 0 0 Z M0.125 3.265625 C-2.10913013 6.61682019 -2.11347762 7.6834005 -2.0703125 11.58984375 C-2.06386719 12.61787109 -2.05742188 13.64589844 -2.05078125 14.70507812 C-2.03402344 15.77693359 -2.01726563 16.84878906 -2 17.953125 C-1.99097656 19.03658203 -1.98195312 20.12003906 -1.97265625 21.23632812 C-1.9490734 23.9129821 -1.91616126 26.58919297 -1.875 29.265625 C0.765 29.265625 3.405 29.265625 6.125 29.265625 C6.18299124 25.49485611 6.21859306 21.72420166 6.25 17.953125 C6.26675781 16.88126953 6.28351562 15.80941406 6.30078125 14.70507812 C6.30722656 13.67705078 6.31367188 12.64902344 6.3203125 11.58984375 C6.33078613 10.64197998 6.34125977 9.69411621 6.35205078 8.7175293 C6.29723875 6.00873251 6.29723875 6.00873251 4.125 3.265625 C2.805 3.265625 1.485 3.265625 0.125 3.265625 Z M8.125 7.265625 C8.125 16.505625 8.125 25.745625 8.125 35.265625 C7.135 35.265625 6.145 35.265625 5.125 35.265625 C4.795 34.275625 4.465 33.285625 4.125 32.265625 C2.475 32.595625 0.825 32.925625 -0.875 33.265625 C-0.53055119 35.73829265 -0.53055119 35.73829265 0.125 38.265625 C2.41131494 39.40878247 3.66847406 39.38675232 6.20751953 39.37915039 C7.04824005 39.37907486 7.88896057 39.37899933 8.75515747 39.37892151 C9.66353363 39.37376022 10.57190979 39.36859894 11.5078125 39.36328125 C12.43721649 39.3618663 13.36662048 39.36045135 14.32418823 39.35899353 C17.29949124 39.35338553 20.27471964 39.34083168 23.25 39.328125 C25.26432183 39.32311103 27.27864484 39.31854795 29.29296875 39.31445312 C34.2370312 39.30426338 39.18093185 39.28468953 44.125 39.265625 C44.125 28.705625 44.125 18.145625 44.125 7.265625 C32.245 7.265625 20.365 7.265625 8.125 7.265625 Z " fill="#000000" transform="translate(3.875,1.734375)"/>
<path d="M0 0 C2.31 0 4.62 0 7 0 C7 2.31 7 4.62 7 7 C6.01 6.67 5.02 6.34 4 6 C3.2575 6.845625 2.515 7.69125 1.75 8.5625 C-1 11 -1 11 -3.0625 10.9375 C-3.701875 10.628125 -4.34125 10.31875 -5 10 C-5.7425 9.649375 -6.485 9.29875 -7.25 8.9375 C-7.8275 8.628125 -8.405 8.31875 -9 8 C-9.763125 8.680625 -10.52625 9.36125 -11.3125 10.0625 C-12.199375 10.701875 -13.08625 11.34125 -14 12 C-14.99 11.67 -15.98 11.34 -17 11 C-15.4169423 6.7257442 -12.49431596 4.73468206 -9 2 C-6.50638429 3.20381448 -4.31856917 4.45428722 -2 6 C-1.01 4.68 -0.02 3.36 1 2 C0.67 1.34 0.34 0.68 0 0 Z " fill="#000000" transform="translate(35,15)"/>
<path d="M0 0 C8.25 0 16.5 0 25 0 C25 0.66 25 1.32 25 2 C16.75 2 8.5 2 0 2 C0 1.34 0 0.68 0 0 Z " fill="#000000" transform="translate(17,32)"/>
</svg>
